<svg xmlns="http://www.w3.org/2000/svg" viewBox="0 0 32 32">
  <defs>
    <linearGradient id="fg" x1="0%" y1="0%" x2="100%" y2="100%">
      <stop offset="0%" stop-color="#1e3a8a"/>
      <stop offset="100%" stop-color="#3b82f6"/>
    </linearGradient>
    <linearGradient id="fg2" x1="0%" y1="0%" x2="100%" y2="100%">
      <stop offset="0%" stop-color="#3b82f6"/>
      <stop offset="100%" stop-color="#60a5fa"/>
    </linearGradient>
    <linearGradient id="ac" x1="0%" y1="100%" x2="100%" y2="0%">
      <stop offset="0%" stop-color="#059669"/>
      <stop offset="100%" stop-color="#34d399"/>
    </linearGradient>
  </defs>

  <!-- Background circle -->
  <circle cx="16" cy="16" r="15" fill="url(#fg)" opacity="0.12"/>

  <!-- Left page -->
  <path d="M7 10 C7 8, 9 7, 11 7 L16 7 L16 25 L11 25 C9 25, 7 24, 7 22 Z"
        fill="url(#fg)"/>

  <!-- Right page -->
  <path d="M16 7 L21 7 C23 7, 25 8, 25 10 L25 22 C25 24, 23 25, 21 25 L16 25 Z"
        fill="url(#fg2)"/>

  <!-- Spine -->
  <rect x="15.3" y="7" width="1.4" height="18" rx="0.5" fill="#1e3a8a"/>

  <!-- Bookmark -->
  <path d="M15.5 8.5 L15.5 15 L13 13 L10.5 15 L10.5 8.5"
        fill="url(#ac)" stroke="#059669" stroke-width="0.3"/>

  <!-- Page lines -->
  <line x1="9" y1="13" x2="14.5" y2="13" stroke="#ffffff" stroke-width="0.6" opacity="0.35"/>
  <line x1="9" y1="16" x2="14.5" y2="16" stroke="#ffffff" stroke-width="0.6" opacity="0.35"/>
  <line x1="9" y1="19" x2="14.5" y2="19" stroke="#ffffff" stroke-width="0.6" opacity="0.35"/>
  <line x1="17.5" y1="13" x2="23" y2="13" stroke="#ffffff" stroke-width="0.6" opacity="0.35"/>
  <line x1="17.5" y1="16" x2="23" y2="16" stroke="#ffffff" stroke-width="0.6" opacity="0.35"/>
  <line x1="17.5" y1="19" x2="23" y2="19" stroke="#ffffff" stroke-width="0.6" opacity="0.35"/>
</svg>
